<svg width="48" height="13" viewBox="0 0 48 13" fill="none" xmlns="http://www.w3.org/2000/svg">
<path d="M4.08984 9.49512V6.90234L9.00293 0.319336H12.0615V7.37695H13.9863V9.49512H12.0615V12H9.60938V9.49512H4.08984ZM6.27832 7.37695H9.60938V2.91211L6.27832 7.37695ZM15.876 11.6396C15.5596 11.3174 15.4014 10.9336 15.4014 10.4883C15.4014 10.043 15.5596 9.65918 15.876 9.33691C16.1982 9.01465 16.585 8.85352 17.0361 8.85352C17.4932 8.85352 17.8828 9.01465 18.2051 9.33691C18.5332 9.65332 18.6973 10.0371 18.6973 10.4883C18.6973 10.9395 18.5332 11.3262 18.2051 11.6484C17.8828 11.9648 17.4932 12.123 17.0361 12.123C16.585 12.123 16.1982 11.9619 15.876 11.6396ZM20.4727 8.85352C20.4727 8.22656 20.6602 7.65527 21.0352 7.13965C21.416 6.61816 21.917 6.24023 22.5381 6.00586C21.9756 5.80078 21.5273 5.45215 21.1934 4.95996C20.8652 4.46191 20.7012 3.94043 20.7012 3.39551C20.7012 2.41699 21.0938 1.61426 21.8789 0.987305C22.6699 0.360352 23.6719 0.046875 24.8848 0.046875C26.0977 0.046875 27.0967 0.360352 27.8818 0.987305C28.667 1.61426 29.0596 2.41699 29.0596 3.39551C29.0596 3.93457 28.8955 4.45312 28.5674 4.95117C28.2451 5.44922 27.8027 5.80078 27.2402 6.00586C27.8496 6.22852 28.3418 6.60352 28.7168 7.13086C29.0977 7.65234 29.2881 8.22656 29.2881 8.85352C29.2881 9.86719 28.8838 10.6904 28.0752 11.3232C27.2725 11.9561 26.209 12.2725 24.8848 12.2725C23.5605 12.2725 22.4941 11.9561 21.6855 11.3232C20.877 10.6904 20.4727 9.86719 20.4727 8.85352ZM22.916 8.59863C22.916 9.03809 23.0918 9.41895 23.4434 9.74121C23.7949 10.0576 24.2754 10.2158 24.8848 10.2158C25.5 10.2158 25.9834 10.0576 26.335 9.74121C26.6865 9.41895 26.8623 9.03809 26.8623 8.59863C26.8623 8.1416 26.6895 7.75195 26.3438 7.42969C25.998 7.10742 25.5117 6.94629 24.8848 6.94629C24.2578 6.94629 23.7715 7.10742 23.4258 7.42969C23.0859 7.75195 22.916 8.1416 22.916 8.59863ZM23.1709 3.58008C23.1709 4.00781 23.3232 4.36816 23.6279 4.66113C23.9385 4.9541 24.3574 5.10352 24.8848 5.10938C25.418 5.10352 25.8369 4.9541 26.1416 4.66113C26.4521 4.36816 26.6074 4.00781 26.6074 3.58008C26.6074 3.16992 26.4521 2.82129 26.1416 2.53418C25.8311 2.24707 25.4121 2.10352 24.8848 2.10352C24.3633 2.10352 23.9473 2.25 23.6367 2.54297C23.3262 2.83008 23.1709 3.17578 23.1709 3.58008Z" fill="#E76A43"/>
<path d="M37.3488 8.4C37.4129 8.106 37.2963 7.686 37.0921 7.476L35.6746 6.018C35.2313 5.562 35.0563 5.076 35.1846 4.656C35.3188 4.236 35.7329 3.948 36.3513 3.84L38.1713 3.528C38.4338 3.48 38.7546 3.24 38.8771 2.994L39.8804 0.924C40.1721 0.33 40.5688 0 41.0004 0C41.4321 0 41.8288 0.33 42.1204 0.924L43.1238 2.994C43.1996 3.15 43.3571 3.3 43.5263 3.402L37.2438 9.864C37.1621 9.948 37.0221 9.87 37.0454 9.75L37.3488 8.4Z" fill="#E76A43"/>
<path d="M44.9078 7.47594C44.6978 7.69194 44.5811 8.10594 44.6511 8.39994L45.0536 10.2059C45.2228 10.9559 45.1178 11.5199 44.7561 11.7899C44.6103 11.8979 44.4353 11.9519 44.2311 11.9519C43.9336 11.9519 43.5836 11.8379 43.1986 11.6039L41.4895 10.5599C41.2211 10.3979 40.7778 10.3979 40.5095 10.5599L38.8003 11.6039C38.1528 11.9939 37.5986 12.0599 37.2428 11.7899C37.1086 11.6879 37.0095 11.5499 36.9453 11.3699L44.0386 4.07394C44.307 3.79794 44.6861 3.67194 45.0536 3.73794L45.6428 3.83994C46.2611 3.94794 46.6753 4.23594 46.8095 4.65594C46.9378 5.07594 46.7628 5.56194 46.3195 6.01794L44.9078 7.47594Z" fill="#E76A43"/>
</svg>
